<svg width="22" height="22" viewBox="0 0 22 22" fill="none" xmlns="http://www.w3.org/2000/svg">
<path fill-rule="evenodd" clip-rule="evenodd" d="M15.4839 1.03008C15.7782 -0.336577 17.7141 -0.346424 18.0205 1.01904L18.0561 1.17779C18.3804 2.6235 19.5231 3.7185 20.9411 3.96938C22.353 4.21913 22.353 6.25704 20.9411 6.50679C19.5231 6.75767 18.3804 7.85269 18.0561 9.29838L18.0205 9.45713C17.7141 10.8226 15.7782 10.8127 15.4839 9.44609L15.4546 9.30986C15.1423 7.85885 14.0011 6.75581 12.5808 6.50454C11.1715 6.25523 11.1715 4.22094 12.5808 3.97163C14.0011 3.72036 15.1423 2.61733 15.4546 1.16631L15.4839 1.03008ZM2.09523 8.17141V2.30476H7.96189V8.17141H2.09523ZM1.8458 0.209525C0.826394 0.209525 0 1.03592 0 2.05532V8.42085C0 9.44025 0.826394 10.2666 1.8458 10.2666H8.21132C9.23073 10.2666 10.0571 9.44025 10.0571 8.42085V2.05532C10.0571 1.03592 9.23073 0.209525 8.21132 0.209525H1.8458ZM2.09523 14.0381V19.9047H7.96189V14.0381H2.09523ZM0 13.7886C0 12.7692 0.826394 11.9428 1.8458 11.9428H8.21132C9.23073 11.9428 10.0571 12.7692 10.0571 13.7886V20.1541C10.0571 21.1736 9.23073 22 8.21132 22H1.8458C0.826394 22 0 21.1736 0 20.1541V13.7886ZM13.8285 19.9047V14.0381H19.6952V19.9047H13.8285ZM13.5791 11.9428C12.5597 11.9428 11.7333 12.7692 11.7333 13.7886V20.1541C11.7333 21.1736 12.5597 22 13.5791 22H19.9446C20.9641 22 21.7904 21.1736 21.7904 20.1541V13.7886C21.7904 12.7692 20.9641 11.9428 19.9446 11.9428H13.5791Z" fill="#D5BBFF"/>
</svg>
