<svg width="24" height="24" viewBox="0 0 24 24" fill="none" xmlns="http://www.w3.org/2000/svg">
<path d="M21 15C21 15.5304 20.7893 16.0391 20.4142 16.4142C20.0391 16.7893 19.5304 17 19 17H7L3 21V5C3 4.46957 3.21071 3.96086 3.58579 3.58579C3.96086 3.21071 4.46957 3 5 3H19C19.5304 3 20.0391 3.21071 20.4142 3.58579C20.7893 3.96086 21 4.46957 21 5V15Z" stroke="#D5BBFF" stroke-width="2.5" stroke-linecap="round" stroke-linejoin="round"/>
<g clip-path="url(#clip0_2981_474)">
<path fill-rule="evenodd" clip-rule="evenodd" d="M11.9999 6.1582C11.8866 6.1582 11.7755 6.19064 11.68 6.25169C11.5857 6.31196 11.5103 6.39763 11.4625 6.4988L10.5554 8.33028C10.5536 8.33388 10.5519 8.33751 10.5502 8.34119L10.5484 8.34348L10.5456 8.34455C10.5422 8.34493 10.5387 8.34538 10.5352 8.3459L8.53775 8.64182C8.42734 8.65255 8.32206 8.69398 8.23388 8.76153C8.14264 8.83142 8.07363 8.92626 8.03519 9.03458C7.99676 9.14289 7.99055 9.26003 8.01734 9.3718C8.04402 9.48313 8.10228 9.58438 8.18512 9.66338L9.64728 11.0741L9.65061 11.0773C9.6527 11.0793 9.65427 11.0817 9.65517 11.0844C9.65607 11.0871 9.65628 11.09 9.65578 11.0928L9.30704 13.1338C9.2879 13.2443 9.30002 13.3585 9.34219 13.4623C9.38443 13.5665 9.45503 13.6566 9.54596 13.7225C9.6369 13.7884 9.74451 13.8275 9.85656 13.8353C9.96838 13.843 10.0801 13.8193 10.1792 13.7669L10.1798 13.7665L11.9795 12.8154C11.9859 12.8126 11.9929 12.8111 12 12.8111C12.007 12.8111 12.014 12.8126 12.0204 12.8154L13.8201 13.7665C13.9192 13.8191 14.0314 13.8431 14.1433 13.8353C14.2554 13.8275 14.363 13.7884 14.4539 13.7225C14.5449 13.6566 14.6155 13.5665 14.6577 13.4623C14.6999 13.3585 14.7121 13.2449 14.693 13.1344L14.6929 13.1338L14.3445 11.0947L14.3441 11.0928C14.3436 11.09 14.3438 11.0871 14.3447 11.0844C14.3456 11.0817 14.3472 11.0793 14.3493 11.0773L14.3526 11.0741L15.8148 9.66337C15.8976 9.58437 15.9559 9.48313 15.9826 9.3718C16.0093 9.26003 16.0031 9.14289 15.9647 9.03458C15.9263 8.92626 15.8573 8.83142 15.766 8.76153C15.6778 8.69398 15.5726 8.65255 15.4622 8.64182L13.4647 8.3459C13.4612 8.34538 13.4577 8.34493 13.4543 8.34455L13.4515 8.34348L13.4497 8.34119C13.448 8.33751 13.4463 8.33388 13.4445 8.33028L12.5374 6.49879C12.4896 6.39762 12.4142 6.31196 12.3199 6.25169C12.2244 6.19064 12.1133 6.1582 11.9999 6.1582Z" fill="#D5BBFF"/>
</g>
<defs>
<clipPath id="clip0_2981_474">
<rect width="8" height="8" fill="white" transform="translate(8 6)"/>
</clipPath>
</defs>
</svg>
