<svg width="24" height="24" viewBox="0 0 24 24" fill="none" xmlns="http://www.w3.org/2000/svg">
<path d="M10.2 7.79995C10.7457 5.39516 12.8963 3.59995 15.4662 3.59995C18.4486 3.59995 20.8662 6.01761 20.8662 8.99995C20.8662 11.7625 18.7919 14.0405 16.1158 14.3613M6.60005 5.99995L9.00005 3.59995L6.60005 1.19995M1.80005 8.39995V6.79995C1.80005 5.03264 3.23274 3.59995 5.00005 3.59995H7.40005M17.4 18L15 20.3999L17.4 22.7999M22.2 15.6V17.1999C22.2 18.9673 20.7674 20.4 19 20.4H16.6M12.6 16.2C12.6 19.1823 10.1824 21.5999 7.20005 21.5999C4.21771 21.5999 1.80005 19.1823 1.80005 16.2C1.80005 13.2176 4.21771 10.8 7.20005 10.8C10.1824 10.8 12.6 13.2176 12.6 16.2Z" stroke="#D5BBFF" stroke-width="2" stroke-linecap="round" stroke-linejoin="round"/>
<path d="M8.71913 16.776C8.71913 16.996 8.66113 17.2 8.54513 17.388C8.43313 17.572 8.26513 17.724 8.04113 17.844C7.82113 17.96 7.55913 18.024 7.25513 18.036V18.522H6.87113V18.03C6.44713 17.994 6.10513 17.868 5.84513 17.652C5.58513 17.432 5.44713 17.134 5.43113 16.758H6.52313C6.54713 16.998 6.66313 17.152 6.87113 17.22V16.272C6.55913 16.192 6.30913 16.114 6.12113 16.038C5.93713 15.962 5.77513 15.84 5.63513 15.672C5.49513 15.504 5.42513 15.274 5.42513 14.982C5.42513 14.618 5.55913 14.326 5.82713 14.106C6.09913 13.886 6.44713 13.762 6.87113 13.734V13.248H7.25513V13.734C7.67513 13.766 8.00713 13.888 8.25113 14.1C8.49513 14.312 8.63113 14.606 8.65913 14.982H7.56113C7.53713 14.766 7.43513 14.626 7.25513 14.562V15.492C7.58713 15.584 7.84313 15.666 8.02313 15.738C8.20313 15.81 8.36313 15.93 8.50313 16.098C8.64713 16.262 8.71913 16.488 8.71913 16.776ZM6.51113 14.934C6.51113 15.034 6.54113 15.118 6.60113 15.186C6.66513 15.254 6.75513 15.314 6.87113 15.366V14.532C6.75913 14.552 6.67113 14.596 6.60713 14.664C6.54313 14.728 6.51113 14.818 6.51113 14.934ZM7.25513 17.238C7.37513 17.218 7.46913 17.17 7.53713 17.094C7.60913 17.018 7.64513 16.924 7.64513 16.812C7.64513 16.708 7.61113 16.624 7.54313 16.56C7.47913 16.492 7.38313 16.434 7.25513 16.386V17.238Z" fill="#D5BBFF"/>
<path d="M17.7191 9.776C17.7191 9.996 17.6611 10.2 17.5451 10.388C17.4331 10.572 17.2651 10.724 17.0411 10.844C16.8211 10.96 16.5591 11.024 16.2551 11.036V11.522H15.8711V11.03C15.4471 10.994 15.1051 10.868 14.8451 10.652C14.5851 10.432 14.4471 10.134 14.4311 9.758H15.5231C15.5471 9.998 15.6631 10.152 15.8711 10.22V9.272C15.5591 9.192 15.3091 9.114 15.1211 9.038C14.9371 8.962 14.7751 8.84 14.6351 8.672C14.4951 8.504 14.4251 8.274 14.4251 7.982C14.4251 7.618 14.5591 7.326 14.8271 7.106C15.0991 6.886 15.4471 6.762 15.8711 6.734V6.248H16.2551V6.734C16.6751 6.766 17.0071 6.888 17.2511 7.1C17.4951 7.312 17.6311 7.606 17.6591 7.982H16.5611C16.5371 7.766 16.4351 7.626 16.2551 7.562V8.492C16.5871 8.584 16.8431 8.666 17.0231 8.738C17.2031 8.81 17.3631 8.93 17.5031 9.098C17.6471 9.262 17.7191 9.488 17.7191 9.776ZM15.5111 7.934C15.5111 8.034 15.5411 8.118 15.6011 8.186C15.6651 8.254 15.7551 8.314 15.8711 8.366V7.532C15.7591 7.552 15.6711 7.596 15.6071 7.664C15.5431 7.728 15.5111 7.818 15.5111 7.934ZM16.2551 10.238C16.3751 10.218 16.4691 10.17 16.5371 10.094C16.6091 10.018 16.6451 9.924 16.6451 9.812C16.6451 9.708 16.6111 9.624 16.5431 9.56C16.4791 9.492 16.3831 9.434 16.2551 9.386V10.238Z" fill="#D5BBFF"/>
</svg>
